<mxGraphModel dx="2341" dy="1206" grid="1" gridSize="10" guides="1" tooltips="1" connect="1" arrows="1" fold="1" page="1" pageScale="1" pageWidth="850" pageHeight="1100" math="0" shadow="0">
  <root>
    <mxCell id="0" />
    <mxCell id="1" parent="0" />
    <mxCell id="a6q8CYu0dvoi4QMRR3i3-5" value="" style="edgeStyle=orthogonalEdgeStyle;rounded=0;orthogonalLoop=1;jettySize=auto;html=1;" parent="1" source="a6q8CYu0dvoi4QMRR3i3-1" target="a6q8CYu0dvoi4QMRR3i3-3" edge="1">
      <mxGeometry relative="1" as="geometry" />
    </mxCell>
    <mxCell id="a6q8CYu0dvoi4QMRR3i3-1" value="Frontend&lt;div&gt;- Vuetiify UI/Ux&lt;/div&gt;&lt;div&gt;- Tabbed recipe editor&lt;/div&gt;&lt;div&gt;- Search UI&lt;/div&gt;" style="rounded=1;whiteSpace=wrap;html=1;" parent="1" vertex="1">
      <mxGeometry x="120" y="155" width="170" height="70" as="geometry" />
    </mxCell>
    <mxCell id="a6q8CYu0dvoi4QMRR3i3-2" value="Data (EF Core + SQL)&lt;div&gt;- Recipes, Tags, Ingredients, Steps&lt;/div&gt;" style="rounded=1;whiteSpace=wrap;html=1;" parent="1" vertex="1">
      <mxGeometry x="560" y="150" width="140" height="80" as="geometry" />
    </mxCell>
    <mxCell id="a6q8CYu0dvoi4QMRR3i3-6" value="" style="edgeStyle=orthogonalEdgeStyle;rounded=0;orthogonalLoop=1;jettySize=auto;html=1;" parent="1" source="a6q8CYu0dvoi4QMRR3i3-3" target="a6q8CYu0dvoi4QMRR3i3-2" edge="1">
      <mxGeometry relative="1" as="geometry" />
    </mxCell>
    <mxCell id="a6q8CYu0dvoi4QMRR3i3-3" value="API Backend&lt;div&gt;- Controllers&lt;/div&gt;&lt;div&gt;- Services + caching&lt;/div&gt;&lt;div&gt;- Redis Integration&lt;/div&gt;" style="rounded=1;whiteSpace=wrap;html=1;" parent="1" vertex="1">
      <mxGeometry x="360" y="155" width="130" height="70" as="geometry" />
    </mxCell>
    <mxCell id="a6q8CYu0dvoi4QMRR3i3-4" value="&lt;h1 style=&quot;margin-top: 0px;&quot;&gt;Overall Architecture&lt;/h1&gt;" style="text;html=1;whiteSpace=wrap;overflow=hidden;rounded=0;" parent="1" vertex="1">
      <mxGeometry x="300" y="72" width="250" height="40" as="geometry" />
    </mxCell>
    <mxCell id="a6q8CYu0dvoi4QMRR3i3-8" value="&lt;h1 style=&quot;margin-top: 0px;&quot;&gt;Entities Relationships&lt;/h1&gt;" style="text;html=1;whiteSpace=wrap;overflow=hidden;rounded=0;" parent="1" vertex="1">
      <mxGeometry x="320" y="310" width="290" height="40" as="geometry" />
    </mxCell>
    <mxCell id="a6q8CYu0dvoi4QMRR3i3-9" value="Ingredients" style="swimlane;fontStyle=0;childLayout=stackLayout;horizontal=1;startSize=30;horizontalStack=0;resizeParent=1;resizeParentMax=0;resizeLast=0;collapsible=1;marginBottom=0;whiteSpace=wrap;html=1;" parent="1" vertex="1">
      <mxGeometry x="60" y="385" width="140" height="150" as="geometry" />
    </mxCell>
    <mxCell id="a6q8CYu0dvoi4QMRR3i3-10" value="ID: int" style="text;strokeColor=none;fillColor=none;align=left;verticalAlign=middle;spacingLeft=4;spacingRight=4;overflow=hidden;points=[[0,0.5],[1,0.5]];portConstraint=eastwest;rotatable=0;whiteSpace=wrap;html=1;" parent="a6q8CYu0dvoi4QMRR3i3-9" vertex="1">
      <mxGeometry y="30" width="140" height="30" as="geometry" />
    </mxCell>
    <mxCell id="a6q8CYu0dvoi4QMRR3i3-11" value="content: string" style="text;strokeColor=none;fillColor=none;align=left;verticalAlign=middle;spacingLeft=4;spacingRight=4;overflow=hidden;points=[[0,0.5],[1,0.5]];portConstraint=eastwest;rotatable=0;whiteSpace=wrap;html=1;" parent="a6q8CYu0dvoi4QMRR3i3-9" vertex="1">
      <mxGeometry y="60" width="140" height="30" as="geometry" />
    </mxCell>
    <mxCell id="a6q8CYu0dvoi4QMRR3i3-12" value="RecipeId: FK" style="text;strokeColor=none;fillColor=none;align=left;verticalAlign=middle;spacingLeft=4;spacingRight=4;overflow=hidden;points=[[0,0.5],[1,0.5]];portConstraint=eastwest;rotatable=0;whiteSpace=wrap;html=1;" parent="a6q8CYu0dvoi4QMRR3i3-9" vertex="1">
      <mxGeometry y="90" width="140" height="30" as="geometry" />
    </mxCell>
    <mxCell id="a6q8CYu0dvoi4QMRR3i3-25" value="index: int" style="text;strokeColor=none;fillColor=none;align=left;verticalAlign=middle;spacingLeft=4;spacingRight=4;overflow=hidden;points=[[0,0.5],[1,0.5]];portConstraint=eastwest;rotatable=0;whiteSpace=wrap;html=1;" parent="a6q8CYu0dvoi4QMRR3i3-9" vertex="1">
      <mxGeometry y="120" width="140" height="30" as="geometry" />
    </mxCell>
    <mxCell id="a6q8CYu0dvoi4QMRR3i3-13" value="Recipe" style="swimlane;fontStyle=0;childLayout=stackLayout;horizontal=1;startSize=30;horizontalStack=0;resizeParent=1;resizeParentMax=0;resizeLast=0;collapsible=1;marginBottom=0;whiteSpace=wrap;html=1;" parent="1" vertex="1">
      <mxGeometry x="330" y="445" width="180" height="210" as="geometry" />
    </mxCell>
    <mxCell id="a6q8CYu0dvoi4QMRR3i3-14" value="ID: int" style="text;strokeColor=none;fillColor=none;align=left;verticalAlign=middle;spacingLeft=4;spacingRight=4;overflow=hidden;points=[[0,0.5],[1,0.5]];portConstraint=eastwest;rotatable=0;whiteSpace=wrap;html=1;" parent="a6q8CYu0dvoi4QMRR3i3-13" vertex="1">
      <mxGeometry y="30" width="180" height="30" as="geometry" />
    </mxCell>
    <mxCell id="a6q8CYu0dvoi4QMRR3i3-15" value="title: string" style="text;strokeColor=none;fillColor=none;align=left;verticalAlign=middle;spacingLeft=4;spacingRight=4;overflow=hidden;points=[[0,0.5],[1,0.5]];portConstraint=eastwest;rotatable=0;whiteSpace=wrap;html=1;" parent="a6q8CYu0dvoi4QMRR3i3-13" vertex="1">
      <mxGeometry y="60" width="180" height="30" as="geometry" />
    </mxCell>
    <mxCell id="a6q8CYu0dvoi4QMRR3i3-16" value="description: string" style="text;strokeColor=none;fillColor=none;align=left;verticalAlign=middle;spacingLeft=4;spacingRight=4;overflow=hidden;points=[[0,0.5],[1,0.5]];portConstraint=eastwest;rotatable=0;whiteSpace=wrap;html=1;" parent="a6q8CYu0dvoi4QMRR3i3-13" vertex="1">
      <mxGeometry y="90" width="180" height="30" as="geometry" />
    </mxCell>
    <mxCell id="a6q8CYu0dvoi4QMRR3i3-26" value="Image: string(URL)" style="text;strokeColor=none;fillColor=none;align=left;verticalAlign=middle;spacingLeft=4;spacingRight=4;overflow=hidden;points=[[0,0.5],[1,0.5]];portConstraint=eastwest;rotatable=0;whiteSpace=wrap;html=1;" parent="a6q8CYu0dvoi4QMRR3i3-13" vertex="1">
      <mxGeometry y="120" width="180" height="30" as="geometry" />
    </mxCell>
    <mxCell id="a6q8CYu0dvoi4QMRR3i3-27" value="CookingTimeMinutes: int" style="text;strokeColor=none;fillColor=none;align=left;verticalAlign=middle;spacingLeft=4;spacingRight=4;overflow=hidden;points=[[0,0.5],[1,0.5]];portConstraint=eastwest;rotatable=0;whiteSpace=wrap;html=1;" parent="a6q8CYu0dvoi4QMRR3i3-13" vertex="1">
      <mxGeometry y="150" width="180" height="30" as="geometry" />
    </mxCell>
    <mxCell id="a6q8CYu0dvoi4QMRR3i3-28" value="description: string" style="text;strokeColor=none;fillColor=none;align=left;verticalAlign=middle;spacingLeft=4;spacingRight=4;overflow=hidden;points=[[0,0.5],[1,0.5]];portConstraint=eastwest;rotatable=0;whiteSpace=wrap;html=1;" parent="a6q8CYu0dvoi4QMRR3i3-13" vertex="1">
      <mxGeometry y="180" width="180" height="30" as="geometry" />
    </mxCell>
    <mxCell id="a6q8CYu0dvoi4QMRR3i3-30" style="edgeStyle=orthogonalEdgeStyle;rounded=0;orthogonalLoop=1;jettySize=auto;html=1;entryX=1;entryY=0.5;entryDx=0;entryDy=0;" parent="1" source="a6q8CYu0dvoi4QMRR3i3-17" target="a6q8CYu0dvoi4QMRR3i3-16" edge="1">
      <mxGeometry relative="1" as="geometry" />
    </mxCell>
    <mxCell id="a6q8CYu0dvoi4QMRR3i3-34" value="*:*" style="edgeLabel;html=1;align=center;verticalAlign=middle;resizable=0;points=[];" parent="a6q8CYu0dvoi4QMRR3i3-30" vertex="1" connectable="0">
      <mxGeometry x="0.0242" y="-1" relative="1" as="geometry">
        <mxPoint as="offset" />
      </mxGeometry>
    </mxCell>
    <mxCell id="a6q8CYu0dvoi4QMRR3i3-17" value="Steps" style="swimlane;fontStyle=0;childLayout=stackLayout;horizontal=1;startSize=30;horizontalStack=0;resizeParent=1;resizeParentMax=0;resizeLast=0;collapsible=1;marginBottom=0;whiteSpace=wrap;html=1;" parent="1" vertex="1">
      <mxGeometry x="630" y="415" width="140" height="120" as="geometry" />
    </mxCell>
    <mxCell id="a6q8CYu0dvoi4QMRR3i3-18" value="ID: PK" style="text;strokeColor=none;fillColor=none;align=left;verticalAlign=middle;spacingLeft=4;spacingRight=4;overflow=hidden;points=[[0,0.5],[1,0.5]];portConstraint=eastwest;rotatable=0;whiteSpace=wrap;html=1;" parent="a6q8CYu0dvoi4QMRR3i3-17" vertex="1">
      <mxGeometry y="30" width="140" height="30" as="geometry" />
    </mxCell>
    <mxCell id="a6q8CYu0dvoi4QMRR3i3-19" value="content: string" style="text;strokeColor=none;fillColor=none;align=left;verticalAlign=middle;spacingLeft=4;spacingRight=4;overflow=hidden;points=[[0,0.5],[1,0.5]];portConstraint=eastwest;rotatable=0;whiteSpace=wrap;html=1;" parent="a6q8CYu0dvoi4QMRR3i3-17" vertex="1">
      <mxGeometry y="60" width="140" height="30" as="geometry" />
    </mxCell>
    <mxCell id="a6q8CYu0dvoi4QMRR3i3-20" value="RecipeId" style="text;strokeColor=none;fillColor=none;align=left;verticalAlign=middle;spacingLeft=4;spacingRight=4;overflow=hidden;points=[[0,0.5],[1,0.5]];portConstraint=eastwest;rotatable=0;whiteSpace=wrap;html=1;" parent="a6q8CYu0dvoi4QMRR3i3-17" vertex="1">
      <mxGeometry y="90" width="140" height="30" as="geometry" />
    </mxCell>
    <mxCell id="a6q8CYu0dvoi4QMRR3i3-21" value="Tags" style="swimlane;fontStyle=0;childLayout=stackLayout;horizontal=1;startSize=30;horizontalStack=0;resizeParent=1;resizeParentMax=0;resizeLast=0;collapsible=1;marginBottom=0;whiteSpace=wrap;html=1;" parent="1" vertex="1">
      <mxGeometry x="60" y="610" width="140" height="120" as="geometry" />
    </mxCell>
    <mxCell id="a6q8CYu0dvoi4QMRR3i3-22" value="ID: FK" style="text;strokeColor=none;fillColor=none;align=left;verticalAlign=middle;spacingLeft=4;spacingRight=4;overflow=hidden;points=[[0,0.5],[1,0.5]];portConstraint=eastwest;rotatable=0;whiteSpace=wrap;html=1;" parent="a6q8CYu0dvoi4QMRR3i3-21" vertex="1">
      <mxGeometry y="30" width="140" height="30" as="geometry" />
    </mxCell>
    <mxCell id="a6q8CYu0dvoi4QMRR3i3-23" value="Name" style="text;strokeColor=none;fillColor=none;align=left;verticalAlign=middle;spacingLeft=4;spacingRight=4;overflow=hidden;points=[[0,0.5],[1,0.5]];portConstraint=eastwest;rotatable=0;whiteSpace=wrap;html=1;" parent="a6q8CYu0dvoi4QMRR3i3-21" vertex="1">
      <mxGeometry y="60" width="140" height="30" as="geometry" />
    </mxCell>
    <mxCell id="a6q8CYu0dvoi4QMRR3i3-24" value="RecipeID" style="text;strokeColor=none;fillColor=none;align=left;verticalAlign=middle;spacingLeft=4;spacingRight=4;overflow=hidden;points=[[0,0.5],[1,0.5]];portConstraint=eastwest;rotatable=0;whiteSpace=wrap;html=1;" parent="a6q8CYu0dvoi4QMRR3i3-21" vertex="1">
      <mxGeometry y="90" width="140" height="30" as="geometry" />
    </mxCell>
    <mxCell id="a6q8CYu0dvoi4QMRR3i3-29" style="edgeStyle=orthogonalEdgeStyle;rounded=0;orthogonalLoop=1;jettySize=auto;html=1;entryX=0;entryY=0.5;entryDx=0;entryDy=0;" parent="1" source="a6q8CYu0dvoi4QMRR3i3-11" target="a6q8CYu0dvoi4QMRR3i3-16" edge="1">
      <mxGeometry relative="1" as="geometry" />
    </mxCell>
    <mxCell id="a6q8CYu0dvoi4QMRR3i3-33" value="*:*" style="edgeLabel;html=1;align=center;verticalAlign=middle;resizable=0;points=[];" parent="a6q8CYu0dvoi4QMRR3i3-29" vertex="1" connectable="0">
      <mxGeometry x="-0.0879" y="-1" relative="1" as="geometry">
        <mxPoint as="offset" />
      </mxGeometry>
    </mxCell>
    <mxCell id="a6q8CYu0dvoi4QMRR3i3-31" style="edgeStyle=orthogonalEdgeStyle;rounded=0;orthogonalLoop=1;jettySize=auto;html=1;entryX=0;entryY=0.5;entryDx=0;entryDy=0;" parent="1" source="a6q8CYu0dvoi4QMRR3i3-23" target="a6q8CYu0dvoi4QMRR3i3-16" edge="1">
      <mxGeometry relative="1" as="geometry" />
    </mxCell>
    <mxCell id="a6q8CYu0dvoi4QMRR3i3-32" value="*:*" style="edgeLabel;html=1;align=center;verticalAlign=middle;resizable=0;points=[];" parent="a6q8CYu0dvoi4QMRR3i3-31" vertex="1" connectable="0">
      <mxGeometry x="-0.3811" y="-2" relative="1" as="geometry">
        <mxPoint as="offset" />
      </mxGeometry>
    </mxCell>
    <mxCell id="kULb4H2rP68C9UYrqjVL-1" value="&lt;h1 style=&quot;margin-top: 0px;&quot;&gt;System Architecture &amp;amp; Monitoring&lt;/h1&gt;" style="text;html=1;whiteSpace=wrap;overflow=hidden;rounded=0;" vertex="1" parent="1">
      <mxGeometry x="1010" y="155" width="410" height="40" as="geometry" />
    </mxCell>
    <mxCell id="kULb4H2rP68C9UYrqjVL-2" value="App.Host&lt;div&gt;(Aspire)&lt;/div&gt;" style="rounded=1;whiteSpace=wrap;html=1;" vertex="1" parent="1">
      <mxGeometry x="1080" y="235" width="120" height="60" as="geometry" />
    </mxCell>
    <mxCell id="kULb4H2rP68C9UYrqjVL-3" style="edgeStyle=orthogonalEdgeStyle;rounded=0;orthogonalLoop=1;jettySize=auto;html=1;entryX=1;entryY=0.5;entryDx=0;entryDy=0;" edge="1" parent="1" source="kULb4H2rP68C9UYrqjVL-4" target="kULb4H2rP68C9UYrqjVL-18">
      <mxGeometry relative="1" as="geometry">
        <Array as="points">
          <mxPoint x="1290" y="345" />
        </Array>
      </mxGeometry>
    </mxCell>
    <mxCell id="kULb4H2rP68C9UYrqjVL-4" value="ServiceDefaults&lt;div&gt;(Aspire)&lt;/div&gt;" style="rounded=1;whiteSpace=wrap;html=1;" vertex="1" parent="1">
      <mxGeometry x="1230" y="235" width="120" height="60" as="geometry" />
    </mxCell>
    <mxCell id="kULb4H2rP68C9UYrqjVL-5" style="edgeStyle=orthogonalEdgeStyle;rounded=0;orthogonalLoop=1;jettySize=auto;html=1;entryX=0.5;entryY=1;entryDx=0;entryDy=0;" edge="1" parent="1" source="kULb4H2rP68C9UYrqjVL-6" target="kULb4H2rP68C9UYrqjVL-2">
      <mxGeometry relative="1" as="geometry">
        <Array as="points">
          <mxPoint x="1210" y="405" />
          <mxPoint x="1140" y="405" />
        </Array>
      </mxGeometry>
    </mxCell>
    <mxCell id="kULb4H2rP68C9UYrqjVL-6" value="PostgresDB" style="rounded=1;whiteSpace=wrap;html=1;" vertex="1" parent="1">
      <mxGeometry x="1150" y="485" width="120" height="60" as="geometry" />
    </mxCell>
    <mxCell id="kULb4H2rP68C9UYrqjVL-7" style="edgeStyle=orthogonalEdgeStyle;rounded=0;orthogonalLoop=1;jettySize=auto;html=1;entryX=0.5;entryY=1;entryDx=0;entryDy=0;" edge="1" parent="1" source="kULb4H2rP68C9UYrqjVL-8" target="kULb4H2rP68C9UYrqjVL-2">
      <mxGeometry relative="1" as="geometry">
        <Array as="points">
          <mxPoint x="1050" y="405" />
          <mxPoint x="1140" y="405" />
        </Array>
      </mxGeometry>
    </mxCell>
    <mxCell id="kULb4H2rP68C9UYrqjVL-8" value="Asp.Net&lt;div&gt;(Backend)&lt;/div&gt;" style="rounded=1;whiteSpace=wrap;html=1;" vertex="1" parent="1">
      <mxGeometry x="990" y="485" width="120" height="60" as="geometry" />
    </mxCell>
    <mxCell id="kULb4H2rP68C9UYrqjVL-9" style="edgeStyle=orthogonalEdgeStyle;rounded=0;orthogonalLoop=1;jettySize=auto;html=1;entryX=0.5;entryY=1;entryDx=0;entryDy=0;" edge="1" parent="1" source="kULb4H2rP68C9UYrqjVL-10" target="kULb4H2rP68C9UYrqjVL-2">
      <mxGeometry relative="1" as="geometry">
        <Array as="points">
          <mxPoint x="1370" y="405" />
          <mxPoint x="1140" y="405" />
        </Array>
      </mxGeometry>
    </mxCell>
    <mxCell id="kULb4H2rP68C9UYrqjVL-10" value="Frontend" style="rounded=1;whiteSpace=wrap;html=1;" vertex="1" parent="1">
      <mxGeometry x="1310" y="485" width="120" height="60" as="geometry" />
    </mxCell>
    <mxCell id="kULb4H2rP68C9UYrqjVL-11" style="edgeStyle=orthogonalEdgeStyle;rounded=0;orthogonalLoop=1;jettySize=auto;html=1;entryX=0.5;entryY=1;entryDx=0;entryDy=0;" edge="1" parent="1" source="kULb4H2rP68C9UYrqjVL-12" target="kULb4H2rP68C9UYrqjVL-2">
      <mxGeometry relative="1" as="geometry">
        <Array as="points">
          <mxPoint x="1530" y="405" />
          <mxPoint x="1140" y="405" />
        </Array>
      </mxGeometry>
    </mxCell>
    <mxCell id="kULb4H2rP68C9UYrqjVL-12" value="SDK" style="rounded=1;whiteSpace=wrap;html=1;" vertex="1" parent="1">
      <mxGeometry x="1470" y="485" width="120" height="60" as="geometry" />
    </mxCell>
    <mxCell id="kULb4H2rP68C9UYrqjVL-13" style="edgeStyle=orthogonalEdgeStyle;rounded=0;orthogonalLoop=1;jettySize=auto;html=1;entryX=0.5;entryY=1;entryDx=0;entryDy=0;" edge="1" parent="1" source="kULb4H2rP68C9UYrqjVL-14" target="kULb4H2rP68C9UYrqjVL-2">
      <mxGeometry relative="1" as="geometry">
        <Array as="points">
          <mxPoint x="890" y="405" />
          <mxPoint x="1140" y="405" />
        </Array>
      </mxGeometry>
    </mxCell>
    <mxCell id="kULb4H2rP68C9UYrqjVL-14" value="Redis" style="rounded=1;whiteSpace=wrap;html=1;" vertex="1" parent="1">
      <mxGeometry x="830" y="485" width="120" height="60" as="geometry" />
    </mxCell>
    <mxCell id="kULb4H2rP68C9UYrqjVL-15" style="edgeStyle=orthogonalEdgeStyle;rounded=0;orthogonalLoop=1;jettySize=auto;html=1;entryX=0.5;entryY=1;entryDx=0;entryDy=0;" edge="1" parent="1" source="kULb4H2rP68C9UYrqjVL-17" target="kULb4H2rP68C9UYrqjVL-8">
      <mxGeometry relative="1" as="geometry" />
    </mxCell>
    <mxCell id="kULb4H2rP68C9UYrqjVL-16" style="edgeStyle=orthogonalEdgeStyle;rounded=0;orthogonalLoop=1;jettySize=auto;html=1;entryX=0.5;entryY=1;entryDx=0;entryDy=0;" edge="1" parent="1" source="kULb4H2rP68C9UYrqjVL-17" target="kULb4H2rP68C9UYrqjVL-12">
      <mxGeometry relative="1" as="geometry" />
    </mxCell>
    <mxCell id="kULb4H2rP68C9UYrqjVL-17" value="WebTests" style="rounded=1;whiteSpace=wrap;html=1;" vertex="1" parent="1">
      <mxGeometry x="1180" y="635" width="120" height="60" as="geometry" />
    </mxCell>
    <mxCell id="kULb4H2rP68C9UYrqjVL-18" value="OpenTelemetry" style="rounded=1;whiteSpace=wrap;html=1;" vertex="1" parent="1">
      <mxGeometry x="1080" y="325" width="120" height="40" as="geometry" />
    </mxCell>
  </root>
</mxGraphModel>
